# Blender 3.6.5
# www.blender.org
mtllib Car.mtl
o Car
v -0.967557 0.299997 2.125192
v -0.992557 0.924997 2.025192
v -0.967557 0.299997 -2.174808
v -0.992557 0.974997 -2.111530
v 0.982443 0.299997 2.125192
v 1.007443 0.924997 2.025192
v 0.982443 0.299997 -2.174808
v 1.007443 0.974997 -2.111530
v -0.961307 0.999997 0.787692
v -0.961307 0.999997 -1.537308
v 0.976193 0.999997 -1.537308
v 0.976193 0.999997 0.787692
v -0.670682 1.499997 0.188942
v -0.670682 1.499997 -1.188558
v 0.685568 1.499997 -1.188558
v 0.685568 1.499997 0.188942
v 0.007443 1.064997 -2.124808
v 0.007443 0.299997 -2.174808
v 0.007443 0.999997 2.140192
v 0.007443 0.299997 2.225192
v 0.007443 1.064997 -1.637308
v 0.007443 1.064997 0.837692
v 0.007443 1.564997 -1.288558
v 0.007443 1.564997 0.238942
v 0.977347 0.949997 2.075192
v -0.962295 0.949997 2.075192
v -0.960193 0.999997 -2.124808
v 0.975877 0.999997 -2.124808
v -0.992557 0.974997 -0.374808
v -0.967557 0.299997 -0.374808
v 1.007443 0.974997 -0.374808
v 0.982443 0.299997 -0.374808
v 0.007443 0.299997 -0.374808
v -0.961307 0.999997 -0.374808
v 0.976193 0.999997 -0.374808
v -0.670682 1.524997 -0.499808
v 0.685568 1.524997 -0.499808
v 0.007443 1.589997 -0.499808
v 0.491818 1.049997 -1.612308
v 0.346506 1.549997 -1.263558
v 0.492395 0.999997 2.125192
v 0.491818 1.049997 0.837692
v 0.346506 1.549997 0.238942
v 0.491660 1.049997 -2.124808
v 0.346506 1.574997 -0.499808
v -0.476932 1.049997 0.837692
v -0.476375 1.049997 -2.124808
v -0.331619 1.549997 0.238942
v -0.476932 1.049997 -1.612308
v -0.331619 1.549997 -1.263558
v -0.477426 0.999997 2.125192
v -0.331619 1.574997 -0.499808
v 1.007443 0.662497 -2.174808
v 1.007443 0.662497 2.125192
v 1.007443 0.662497 -0.374808
v -0.992557 0.662497 2.125192
v -0.992557 0.662497 -2.174808
v -0.992557 0.662497 -0.374808
v 0.007443 0.662497 -2.174808
v 0.007443 0.662494 2.240192
v 0.494943 0.299997 2.225192
v 0.884943 0.299997 -2.174808
v 0.494943 0.299997 -0.374808
v 0.907443 0.662497 -2.174808
v 0.507443 0.662495 2.225192
v -0.870057 0.299997 -2.174808
v -0.480057 0.299997 2.225192
v -0.480057 0.299997 -0.374808
v -0.892557 0.662497 -2.174808
v -0.492557 0.662495 2.225192
v 0.907476 0.646872 2.260192
v 0.907476 0.365622 2.260192
v 0.457460 0.365622 2.360192
v -0.442573 0.365622 2.360192
v 0.007443 0.365622 2.375192
v -0.892590 0.365622 2.260192
v -0.892590 0.646872 2.260192
v 0.007443 0.646869 2.375192
v 0.457460 0.646870 2.360192
v -0.442573 0.646870 2.360192
v -0.992557 0.610414 -2.174808
v -0.992557 0.452080 -2.174808
v 1.007443 0.610414 -2.174808
v 1.007443 0.452080 -2.174808
v 1.007443 0.610414 2.125192
v 1.007443 0.402080 2.125192
v 0.007443 0.630622 -2.274808
v 0.007443 0.356765 -2.274808
v 1.007443 0.610414 -0.374808
v 1.007443 0.452080 -0.374808
v -0.992557 0.610414 -0.374808
v -0.992557 0.452080 -0.374808
v -0.992557 0.402080 2.125192
v -0.992557 0.610414 2.125192
v 0.952443 0.630622 -2.274808
v 0.952443 0.356765 -2.274808
v -0.937557 0.630622 -2.274808
v -0.937557 0.356765 -2.274808
v 0.907476 0.599997 2.275192
v 0.907476 0.412497 2.275192
v -0.892590 0.412497 2.275192
v -0.892590 0.599997 2.275192
v 0.007443 0.412495 2.390192
v 0.007443 0.599993 2.390192
v 0.457460 0.599995 2.375192
v 0.457460 0.412496 2.375192
v -0.442573 0.599995 2.375192
v -0.442573 0.412496 2.375192
v -0.515493 0.931701 2.102824
v -0.927631 0.924201 2.060324
v 0.942668 0.924201 2.060324
v 0.530460 0.931701 2.102824
v -0.528354 0.679825 2.187824
v -0.953354 0.679826 2.102824
v 0.968251 0.679826 2.102824
v 0.543251 0.679825 2.187824
v -0.452713 1.061497 0.822723
v -0.912869 1.013997 0.772723
v -0.314666 1.536497 0.253911
v -0.636775 1.488997 0.203911
v 0.927756 1.013997 0.772723
v 0.651662 1.488997 0.203911
v 0.467600 1.061497 0.822723
v 0.007443 1.076497 0.822723
v 0.329553 1.536497 0.253911
v 0.007443 1.551497 0.253911
v -0.992557 0.974997 -0.374808
v -0.946775 1.025622 0.711473
v -0.685213 1.475622 0.172598
v -0.946775 1.025622 -0.334777
v -0.685213 1.498122 -0.447277
v -0.946775 1.025622 -0.427339
v -0.946775 1.025622 -1.473589
v -0.685213 1.498122 -0.539839
v -0.685213 1.475622 -1.159714
v -0.946775 1.025622 -0.427339
v -0.946775 1.025622 -1.473589
v -0.685213 1.498122 -0.539839
v -0.685213 1.475622 -1.159714
v -0.945468 1.027928 -0.432067
v -0.945468 1.027928 -1.467854
v -0.686521 1.495703 -0.543442
v -0.686521 1.473428 -1.157118
v -0.945468 1.027928 0.704613
v -0.686521 1.473428 0.171127
v -0.945468 1.027928 -0.331174
v -0.686521 1.495703 -0.442549
v 0.961662 1.025622 -0.334777
v 0.961662 1.025622 0.711473
v 0.700100 1.498122 -0.447277
v 0.700100 1.475622 0.172598
v 0.700100 1.475622 -1.159714
v 0.961662 1.025622 -1.473589
v 0.961662 1.025622 -0.427339
v 0.700100 1.498122 -0.539839
v 0.704644 1.467999 -1.150693
v 0.957117 1.033636 -1.453661
v 0.957117 1.033636 -0.443769
v 0.704644 1.489717 -0.552359
v 0.957117 1.033636 -0.322257
v 0.957117 1.033636 0.687636
v 0.704644 1.489717 -0.430848
v 0.704644 1.467999 0.167487
v -0.967557 0.299997 1.697067
v 1.007443 0.937497 1.425192
v 0.007443 0.299997 1.575192
v -0.992557 0.937497 1.425192
v 0.982443 0.299997 1.697067
v 1.007443 0.762497 1.491989
v -0.992557 0.762497 1.491989
v 0.494943 0.299997 1.575192
v -0.480057 0.299997 1.575192
v -0.992557 0.452080 1.697067
v 1.007443 0.452080 1.697067
v -0.992557 0.946872 0.975192
v 0.982443 0.299997 0.876754
v 1.007443 0.762497 1.081832
v 1.007443 0.452080 0.876754
v -0.967557 0.299997 0.876754
v 1.007443 0.946872 0.975192
v 0.007443 0.299997 0.975192
v -0.992557 0.762497 1.081832
v 0.494943 0.299997 0.975192
v -0.480057 0.299997 0.975192
v -0.992557 0.452080 0.876754
v -0.992557 0.974997 -1.587308
v 0.982443 0.299997 -1.687308
v -0.967557 0.299997 -1.687308
v 1.007443 0.974997 -1.587308
v 0.007443 0.299997 -1.687308
v 1.007443 0.762497 -1.524496
v -0.992557 0.762497 -1.524496
v 0.787443 0.299997 -1.687308
v -0.772557 0.299997 -1.687308
v 1.007443 0.452080 -1.687308
v -0.992557 0.452080 -1.687308
v -0.946775 1.025622 -1.212027
v -0.685213 1.481247 -1.004745
v -0.946775 1.025622 -1.212027
v -0.685213 1.481247 -1.004745
v -0.967557 0.299997 -0.859183
v 1.007443 0.974997 -0.959183
v 0.007443 0.299997 -0.859183
v -0.992557 0.762497 -1.021996
v 0.714318 0.299997 -0.859183
v -0.699432 0.299997 -0.859183
v -0.992557 0.452080 -0.859183
v -0.992557 0.974997 -0.959183
v 0.982443 0.299997 -0.859183
v 1.007443 0.762497 -1.021996
v 1.007443 0.452080 -0.859183
v -0.946775 1.025622 -1.015855
v -0.685213 1.485466 -0.888519
v -0.946775 1.025622 -1.015855
v -0.685213 1.485466 -0.888519
v -0.686521 1.483173 -0.888635
v 0.467600 1.061647 -1.603589
v 0.927756 1.014147 -1.528589
v 0.329553 1.536647 -1.272277
v 0.651662 1.489147 -1.197277
v -0.636775 1.489147 -1.197277
v -0.912869 1.014147 -1.528589
v -0.452713 1.061647 -1.603589
v 0.007443 1.075897 -1.628589
v -0.314666 1.536647 -1.272277
v 0.007443 1.550897 -1.297277
v 0.444592 1.072714 -1.595307
v 0.881740 1.027589 -1.520307
v 0.313447 1.523964 -1.280560
v 0.619451 1.478839 -1.205559
v -0.604564 1.478839 -1.205559
v -0.866854 1.027589 -1.520307
v -0.429705 1.072714 -1.595307
v 0.007443 1.086252 -1.620306
v -0.298561 1.523964 -1.280560
v 0.007443 1.537502 -1.305560
v 0.007443 0.999997 2.140192
v 0.492395 0.999997 2.125192
v -0.477426 0.999997 2.125192
v 0.007443 0.662494 2.240192
v 0.507443 0.662495 2.225192
v -0.492557 0.662495 2.225192
v 0.007443 0.976237 -2.122556
v 1.057443 0.737497 1.491989
v -1.042557 0.737497 1.491989
v -1.042557 0.427080 1.697067
v 1.057443 0.427080 1.697067
v 1.057443 0.737497 1.081832
v 1.057443 0.427080 0.876754
v -1.042557 0.737497 1.081832
v -1.042557 0.427080 0.876754
v 1.057443 0.737497 -1.524496
v -1.042557 0.737497 -1.524496
v 1.057443 0.427080 -1.687308
v -1.042557 0.427080 -1.687308
v -1.042557 0.737497 -1.021996
v -1.042557 0.427080 -0.859183
v 1.057443 0.737497 -1.021996
v 1.057443 0.427080 -0.859183
v -1.042557 0.714216 1.461227
v -1.042557 0.450362 1.635544
v -1.042557 0.714216 1.112594
v -1.042557 0.450362 0.938278
v 1.057443 0.714216 1.461227
v 1.057443 0.450362 1.635543
v 1.057443 0.714216 1.112594
v 1.057443 0.450362 0.938278
v 1.057443 0.721970 -1.486808
v 1.057443 0.442607 -1.625199
v 1.057443 0.721970 -1.059683
v 1.057443 0.442607 -0.921292
v -1.042557 0.714216 -1.486808
v -1.042557 0.450362 -1.625199
v -1.042557 0.714216 -1.059683
v -1.042557 0.450362 -0.921292
v -0.429705 1.072572 0.807503
v -0.866854 1.027447 0.760003
v -0.298561 1.523822 0.267131
v -0.604564 1.478697 0.219631
v 0.881740 1.027447 0.760003
v 0.619451 1.478697 0.219631
v 0.444592 1.072572 0.807503
v 0.007443 1.086822 0.807503
v 0.313447 1.523822 0.267131
v 0.007443 1.538072 0.267131
vn -0.7994 0.1263 -0.5873
vn -0.9712 -0.0626 -0.2298
vn -0.6153 -0.7471 -0.2515
vn -0.4592 -0.8852 -0.0749
vn 0.0009 -0.1174 -0.9931
vn 0.8218 0.1475 0.5503
vn 0.9541 -0.1046 0.2808
vn 0.6271 -0.7330 0.2635
vn 0.4524 -0.8891 0.0699
vn -0.0000 -1.0000 -0.0000
vn 0.2289 0.8641 0.4483
vn 0.3896 0.6057 0.6938
vn 0.5579 0.8188 0.1351
vn 0.0903 0.9630 0.2539
vn -0.8742 0.4855 0.0066
vn 0.0969 0.9953 0.0006
vn 0.1863 0.7699 -0.6103
vn -0.0000 0.8505 -0.5260
vn -0.0000 1.0000 0.0008
vn -0.1696 0.8332 -0.5262
vn -0.0000 0.9260 0.3776
vn -0.1386 0.8799 0.4545
vn -0.1213 0.6496 0.7505
vn -0.0000 0.7179 0.6961
vn 0.0233 0.5810 -0.8136
vn 0.8755 0.4831 -0.0065
vn -0.4799 0.8342 0.2718
vn -0.1246 0.6766 0.7258
vn 0.1147 0.9493 -0.2927
vn 0.0515 0.6719 -0.7389
vn -0.0000 0.6724 -0.7401
vn -0.0000 0.9124 -0.4094
vn -0.8784 0.1701 0.4466
vn -0.7707 0.6371 0.0129
vn -0.0515 0.6719 -0.7389
vn -0.1147 0.9493 -0.2927
vn -0.0903 0.9630 0.2539
vn -0.2288 0.8641 0.4483
vn -0.0000 0.9990 0.0444
vn -0.0000 0.9416 0.3368
vn 0.7994 0.1263 0.5873
vn 0.9967 -0.0814 -0.0000
vn 0.6472 -0.7623 -0.0000
vn 0.4606 -0.8840 0.0798
vn -0.8201 0.1521 -0.5517
vn -0.9967 -0.0814 -0.0000
vn -0.6472 -0.7623 -0.0000
vn -0.4588 -0.8854 -0.0750
vn 0.8609 0.5087 0.0069
vn -0.0969 0.9953 0.0006
vn -0.5635 0.8261 -0.0005
vn 0.1386 0.8799 0.4545
vn -0.8755 0.4831 -0.0065
vn 0.4799 0.8342 0.2718
vn 0.5635 0.8261 -0.0005
vn 0.5082 0.8498 -0.1398
vn 0.2703 0.6466 -0.7133
vn 0.1213 0.6496 0.7505
vn -0.0602 0.6503 -0.7573
vn -0.5576 0.8190 0.1351
vn -0.3890 0.6058 0.6940
vn -0.2707 0.6449 -0.7147
vn -0.5070 0.8505 -0.1399
vn 0.1246 0.6766 0.7258
vn 0.0869 0.8406 0.5346
vn 0.1718 0.3354 -0.9263
vn -0.0000 0.4963 -0.8681
vn 1.0000 -0.0000 -0.0000
vn -1.0000 -0.0000 -0.0000
vn 0.1995 0.9232 0.3284
vn -0.0000 0.9933 0.1156
vn -0.0000 0.7666 0.6421
vn 0.0818 0.7543 0.6514
vn 0.4459 -0.4201 -0.7904
vn 0.9712 -0.0626 -0.2298
vn 0.6153 -0.7471 -0.2515
vn -0.4459 -0.4201 -0.7904
vn -0.0000 -0.5031 -0.8642
vn -0.0000 -0.9669 -0.2553
vn 0.7952 0.3543 0.4920
vn 0.4231 0.6620 0.6187
vn -0.0000 -0.9767 0.2145
vn 0.0342 -0.9689 0.2450
vn 0.0907 -0.6414 0.7618
vn -0.0000 -0.6582 0.7528
vn -0.6271 -0.7330 0.2635
vn -0.0342 -0.9689 0.2450
vn -0.0907 -0.6414 0.7618
vn -0.4521 -0.5446 0.7065
vn 0.4572 0.1054 0.8831
vn 0.5444 -0.1299 0.8287
vn 0.1232 -0.1518 0.9807
vn 0.4521 -0.5446 0.7065
vn -0.0000 -0.1537 0.9881
vn -0.1232 -0.1518 0.9807
vn -0.5444 -0.1299 0.8287
vn 0.9546 0.0238 0.2968
vn 0.5430 0.1063 0.8330
vn -0.1995 0.9232 0.3284
vn -0.7952 0.3542 0.4920
vn -0.4231 0.6620 0.6187
vn -0.0818 0.7543 0.6514
vn -0.9541 -0.1046 0.2808
vn 0.8795 0.1694 0.4447
vn -0.0990 0.8631 0.4952
vn -0.9546 0.0238 0.2968
vn -0.5430 0.1063 0.8330
vn -0.1232 0.1518 0.9807
vn -0.0000 0.1537 0.9881
vn 0.1232 0.1518 0.9807
vn -0.0000 -0.0000 -1.0000
vn -0.9189 0.1649 -0.3584
vn -0.4515 0.5373 -0.7124
vn -0.0000 0.6611 -0.7503
vn 0.0935 0.6220 -0.7774
vn 0.4515 0.5373 -0.7124
vn -0.0000 0.5900 -0.8074
vn -0.0935 0.6220 -0.7774
vn 0.9189 0.1649 -0.3584
vn 0.1478 0.2568 0.9551
vn -0.1478 0.2569 0.9551
vn -0.7057 0.2425 0.6657
vn 0.0723 -0.3648 0.9283
vn 0.0990 0.8631 0.4952
vn -0.0723 -0.3647 0.9283
vn -0.4572 0.1057 0.8831
vn 0.7056 0.2423 0.6659
vn -0.0872 0.7266 0.6815
vn -0.0000 0.7357 0.6773
vn -0.0000 0.8155 0.5787
vn 0.0823 0.8532 0.5150
vn 0.0806 0.8140 0.5752
vn -0.0000 0.7990 0.6013
vn 0.1154 0.8338 0.5399
vn -0.0869 0.8406 0.5346
vn -0.0823 0.8532 0.5150
vn -0.0806 0.8140 0.5752
vn -0.1154 0.8338 0.5399
vn 0.6247 0.7809 -0.0000
vn 0.6209 0.7839 -0.0003
vn 0.7711 0.6366 0.0129
vn -0.6225 0.7826 -0.0002
vn -0.8641 0.5029 0.0183
vn -0.8609 0.5087 0.0069
vn -0.8699 0.4933 -0.0000
vn -0.0000 1.0000 -0.0000
vn -0.8625 0.5061 -0.0068
vn -0.8707 0.4918 0.0040
vn -0.8658 0.5004 0.0038
vn -0.8646 0.5023 0.0105
vn -0.8687 0.4953 0.0115
vn 0.8742 0.4855 0.0066
vn 0.8641 0.5029 0.0183
vn 0.8699 0.4933 -0.0000
vn 0.8625 0.5061 -0.0068
vn 0.8680 0.4962 -0.0180
vn 0.8658 0.5004 0.0038
vn 0.8707 0.4918 0.0040
vn 0.8687 0.4953 0.0115
vn 0.8646 0.5023 0.0105
vn -0.8218 0.1475 0.5503
vn -0.4524 -0.8891 0.0699
vn 0.8201 0.1521 -0.5517
vn 0.4588 -0.8854 -0.0750
vn -0.9163 0.3626 0.1702
vn 0.7994 0.1263 -0.5873
vn 0.4606 -0.8840 -0.0798
vn -0.7994 0.1263 0.5873
vn -0.4592 -0.8852 0.0749
vn -0.1863 0.7699 -0.6103
vn -0.4685 0.7982 -0.3787
vn 0.4685 0.7982 -0.3787
vn -0.8680 0.4962 -0.0180
vn -0.8668 0.4987 -0.0039
vn -0.8718 0.4898 -0.0038
vn -0.8708 0.4915 -0.0112
vn -0.8686 0.4953 -0.0123
vn -0.8669 0.4984 -0.0109
vn 0.8718 0.4898 -0.0038
vn 0.8668 0.4987 -0.0039
vn 0.8669 0.4984 -0.0109
vn 0.8708 0.4915 -0.0112
vn -0.1718 0.3354 -0.9263
vn -0.0000 0.5384 -0.8427
vn -0.1377 0.5109 -0.8486
vn 0.1377 0.5109 -0.8486
vn 0.1376 0.3895 -0.9107
vn 0.1943 0.4245 -0.8843
vn -0.1376 0.3895 -0.9107
vn -0.1943 0.4245 -0.8843
vn 0.1696 0.8332 -0.5262
vn -0.0233 0.5810 -0.8136
vn 0.0602 0.6503 -0.7573
vn 0.1231 0.6500 -0.7499
vn -0.0000 0.6171 -0.7869
vn -0.1231 0.6500 -0.7499
vn -0.1294 0.7164 -0.6856
vn 0.1294 0.7164 -0.6856
vn -0.1731 0.8376 -0.5181
vn 0.1731 0.8376 -0.5181
vn 0.0623 0.6515 -0.7560
vn -0.0623 0.6515 -0.7560
vn -0.0000 0.2847 0.9586
vn 0.0292 0.2846 0.9582
vn -0.0292 0.2846 0.9582
vn -0.0009 -0.1174 -0.9931
vn -0.0055 0.1814 -0.9834
vn 0.0055 0.1814 -0.9834
vn 0.9163 0.3626 0.1702
vn -0.2657 0.5314 -0.8044
vn -0.9223 0.3429 0.1782
vn -0.7456 0.5352 0.3971
vn -0.7621 -0.1214 0.6359
vn -0.4472 0.8944 -0.0000
vn -0.9223 0.3429 -0.1782
vn -0.7456 0.5352 -0.3971
vn 0.2262 0.4524 0.8626
vn 0.7660 -0.0929 0.6361
vn 0.7581 0.5485 0.3528
vn 0.2262 0.4524 -0.8626
vn 0.4472 0.8944 -0.0000
vn -0.7581 0.5485 0.3528
vn -0.7660 -0.0929 0.6361
vn 0.2657 0.5314 -0.8044
vn -0.7621 -0.1214 -0.6359
vn -0.9894 -0.1360 -0.0515
vn -0.7660 -0.0929 -0.6361
vn -0.8457 -0.4991 0.1889
vn 0.9894 -0.1360 -0.0515
vn 0.8457 -0.4991 0.1889
vn 0.7660 -0.0929 -0.6361
vn 0.7510 -0.1062 -0.6517
vn 0.8543 -0.5042 0.1260
vn 0.7510 -0.1062 0.6517
vn 0.8543 -0.5042 -0.1260
vn -0.9887 -0.1403 0.0526
vn -0.9887 -0.1403 -0.0526
vn -0.8460 -0.4993 -0.1872
vn 0.1561 0.7011 0.6958
vn 0.0872 0.7266 0.6815
vn -0.1561 0.7011 0.6958
s 0
usemtl Body
f 17//5 44//5 28//5 8//5 243//5
s 1
f 41//11 25//12 12//13 42//14
s 0
f 36//15 34//15 130//15 131//15
s 1
f 45//16 40//17 23//18 38//19
s 0
f 49//20 10//20 222//20 223//20
s 1
f 24//21 48//22 119//23 126//24
s 0
f 15//25 11//25 218//25 220//25
f 37//26 35//26 154//26 155//26
s 1
f 48//22 13//27 120//28 119//23
f 39//29 44//30 17//31 21//32
s 0
f 2//33 56//33 26//33
f 2//34 26//34 9//34 34//34 127//34
s 1
f 47//35 49//36 21//32 17//31
f 46//37 51//38 19//39 22//40
s 0
f 16//49 12//49 149//49 151//49
s 1
f 48//22 52//50 36//51 13//27
f 43//52 45//16 38//19 24//21
s 0
f 34//53 36//53 134//53 132//53
s 1
f 16//54 37//55 45//16 43//52
f 11//56 28//57 44//30 39//29
f 43//52 24//21 126//24 125//58
s 0
f 21//59 49//59 223//59 224//59
s 1
f 19//39 41//11 42//14 22//40
f 24//21 38//19 52//50 48//22
f 9//60 26//61 51//38 46//37
f 27//62 10//63 49//36 47//35
f 12//13 16//54 122//64 121//65
f 23//18 40//17 219//66 226//67
s 0
f 202//68 31//68 55//68 210//68
f 165//68 6//68 54//68 169//68
f 175//69 29//69 58//69 182//69
f 186//69 4//69 57//69 192//69
f 26//90 56//90 114//90 110//90
f 25//104 54//104 6//104
f 56//105 70//105 113//105 114//105
f 57//111 69//111 81//111
f 89//68 90//68 211//68 210//68 55//68
f 177//68 178//68 90//68 89//68 55//68
f 70//122 51//122 109//122 113//122
f 25//123 41//123 112//123 111//123
f 65//124 54//124 115//124 116//124
f 51//125 26//125 110//125 109//125
f 54//126 25//126 111//126 115//126
f 41//127 65//127 116//127 112//127
s 1
f 13//27 9//60 118//135 120//28
f 22//40 42//14 123//131 124//130
f 46//37 22//40 124//130 117//136
f 42//14 12//13 121//65 123//131
f 9//60 46//37 117//136 118//135
f 16//54 43//52 125//58 122//64
s 0
f 202//139 189//139 8//139 11//139 35//139 31//139
f 11//140 8//140 28//140
f 31//141 35//141 12//141 25//141 6//141 165//141 180//141
f 127//142 34//142 10//142 27//142 4//142
f 13//143 36//143 131//143 129//143
f 9//144 13//144 129//144 128//144
f 34//145 9//145 128//145 130//145
f 14//147 10//147 133//147 135//147
f 10//145 34//145 132//145 212//145 197//145 133//145
f 37//153 16//153 151//153 150//153
f 35//152 37//152 150//152 148//152
f 12//154 35//154 148//154 149//154
f 11//155 15//155 152//155 153//155
f 15//156 37//156 155//156 152//156
f 83//111 64//111 53//111
f 91//69 92//69 185//69 182//69 58//69
f 2//69 167//69 170//69 56//69
f 180//68 165//68 169//68 177//68
f 31//68 180//68 177//68 55//68
f 167//69 175//69 182//69 170//69
f 208//69 186//69 192//69 204//69
f 8//68 189//68 191//68 53//68
s 1
f 52//50 50//170 14//171 36//51
f 37//55 15//172 40//17 45//16
f 38//19 23//18 50//170 52//50
s 0
f 14//173 135//173 198//173 213//173 134//173 36//173
f 29//69 208//69 204//69 58//69
f 35//154 11//154 153//154 154//154
f 189//68 202//68 210//68 191//68
f 11//191 39//191 217//191 218//191
s 1
f 40//17 15//172 220//187 219//66
f 14//171 50//170 225//183 221//189
s 0
f 10//192 14//192 221//192 222//192
s 1
f 50//170 23//18 226//67 225//183
s 0
f 39//193 21//193 224//193 217//193
s 1
f 237//203 240//203 241//204 238//204
f 239//205 242//205 240//203 237//203
s 0
f 243//206 4//206 27//206 47//206 17//206
f 57//207 4//207 243//207 59//207 69//207
f 8//208 53//208 64//208 59//208 243//208
f 204//69 207//69 92//69 91//69 58//69
f 191//68 195//68 84//68 83//68 53//68
f 192//69 57//69 81//69 82//69 196//69
s 1
usemtl Black
f 126//24 119//23 278//128 285//129
f 124//130 123//131 282//132 283//133
f 123//131 121//65 280//134 282//132
f 118//135 117//136 276//137 277//138
s 0
f 212//146 132//146 136//146 214//146
f 130//145 128//145 144//145 146//145
f 149//154 148//154 160//154 161//154
f 133//146 197//146 199//146 137//146
f 137//145 199//145 214//145 136//145 140//145 141//145
f 197//146 212//146 214//146 199//146
f 154//154 153//154 157//154 158//154
s 1
f 225//183 226//67 236//184 235//185
f 226//67 219//66 229//186 236//184
f 219//66 220//187 230//188 229//186
f 221//189 225//183 235//185 231//190
s 0
f 222//192 221//192 231//192 232//192
f 220//25 218//25 228//25 230//25
f 223//199 222//199 232//199 233//199
f 218//200 217//200 227//200 228//200
f 217//201 224//201 234//201 227//201
f 224//202 223//202 233//202 234//202
s 1
f 119//23 120//28 279//241 278//128
f 122//64 125//58 284//240 281//239
f 125//58 126//24 285//129 284//240
f 120//28 118//135 277//138 279//241
f 121//65 122//64 281//239 280//134
f 117//136 124//130 283//133 276//137
s 0
usemtl Window
f 131//15 130//15 146//15 147//15
f 135//146 133//146 137//146 139//146
f 132//146 134//146 138//146 136//146
f 198//146 135//146 139//146 200//146
f 136//53 138//53 142//53 140//53
f 139//147 137//147 141//147 143//147
s 1
f 146//148 144//149 145//150 147//151
s 0
f 129//143 131//143 147//143 145//143
f 128//144 129//144 145//144 144//144
f 148//152 150//152 162//152 160//152
f 153//155 152//155 156//155 157//155
f 155//26 154//26 158//26 159//26
s 1
f 161//157 160//158 162//159 163//160
s 0
f 150//153 151//153 163//153 162//153
f 151//49 149//49 161//49 163//49
f 213//146 198//146 200//146 215//146
f 152//156 155//156 159//156 156//156
f 134//146 213//146 215//146 138//146
f 138//173 215//173 216//173 142//173
s 1
f 141//174 140//175 142//176 216//177 143//178
s 0
f 215//173 200//173 139//173 143//173 216//173
s 1
f 158//179 157//180 156//181 159//182
f 227//194 234//195 236//184 229//186
f 233//196 232//197 231//190 235//185
f 228//198 227//194 229//186 230//188
f 234//195 233//196 235//185 236//184
f 282//132 280//134 281//239 284//240
f 276//137 283//133 285//129 278//128
f 283//133 282//132 284//240 285//129
f 277//138 276//137 278//128 279//241
usemtl Bumpers
f 196//1 82//2 3//3 188//4
f 174//6 86//7 5//8 168//9
f 211//41 90//42 32//43 209//44
f 185//45 92//46 30//47 179//48
f 65//70 60//71 78//72 79//73
f 96//74 84//75 7//76
f 98//77 88//78 18//79 66//79
f 54//80 65//70 79//73 71//81
f 20//82 61//83 73//84 75//85
f 88//78 96//74 62//79 18//79
f 1//86 67//87 74//88 76//89
f 3//3 98//77 66//79
f 100//91 106//92 73//84 72//93
f 106//92 103//94 75//85 73//84
f 108//95 101//96 76//89 74//88
f 103//94 108//95 74//88 75//85
f 61//83 5//8 72//93 73//84
f 85//97 54//80 71//81 99//98
f 70//99 56//100 77//101 80//102
f 67//87 20//82 75//85 74//88
f 93//103 1//86 76//89 101//96
f 60//71 70//99 80//102 78//72
f 56//100 94//106 102//107 77//101
f 94//106 93//103 101//96 102//107
f 5//8 86//7 100//91 72//93
f 86//7 85//97 99//98 100//91
f 78//72 80//102 107//108 104//109
f 104//109 107//108 108//95 103//94
f 80//102 77//101 102//107 107//108
f 107//108 102//107 101//96 108//95
f 79//73 78//72 104//109 105//110
f 105//110 104//109 103//94 106//92
f 71//81 79//73 105//110 99//98
f 99//98 105//110 106//92 100//91
f 81//112 97//113 98//77 82//2
f 59//114 64//115 95//116 87//117
f 87//117 95//116 96//74 88//78
f 69//118 59//114 87//117 97//113
f 97//113 87//117 88//78 98//77
f 64//115 83//119 95//116
f 95//116 83//119 84//75 96//74
f 81//112 69//118 97//113
f 7//76 62//79 96//74
f 93//103 173//161 164//162 1//86
f 90//42 178//163 176//164 32//43
f 56//100 170//165 94//106
f 84//75 195//166 187//167 7//76
f 92//46 207//168 201//169 30//47
f 98//77 3//3 82//2
f 85//97 86//7 174//6 169//209
s 0
f 182//210 185//210 251//210 250//210
s 1
f 207//168 204//211 256//212 257//213
s 0
f 170//214 182//214 250//214 245//214
s 1
f 204//211 192//215 253//216 256//212
s 0
f 210//217 211//217 259//217 258//217
s 1
f 169//209 174//6 247//218 244//219
s 0
f 195//220 191//220 252//220 254//220
f 191//221 210//221 258//221 252//221
s 1
f 173//161 170//165 245//222 246//223
s 0
f 178//224 177//224 248//224 249//224
s 1
f 192//215 196//1 255//225 253//216
s 0
f 177//221 169//221 244//221 248//221
f 250//69 251//69 263//69 262//69
s 1
f 246//223 245//222 260//69 261//226
s 0
f 245//69 250//69 262//69 260//69
s 1
f 179//48 251//227 185//45
s 0
f 251//228 179//228 263//228
s 1
f 173//161 246//223 164//162
f 246//223 261//226 164//162
s 0
f 249//68 248//68 266//68 267//68
f 248//68 244//68 264//68 266//68
s 1
f 244//219 247//218 265//229 264//68
f 168//9 247//218 174//6
f 247//218 168//9 265//229
s 0
f 249//230 267//230 176//230
s 1
f 169//209 54//80 85//97
f 94//106 170//165 173//161 93//103
f 178//163 249//231 176//164
s 0
f 254//68 252//68 268//68 269//68
f 258//68 259//68 271//68 270//68
f 252//68 258//68 270//68 268//68
s 1
f 195//166 254//232 187//167
s 0
f 254//233 269//233 187//233
s 1
f 209//44 259//234 211//41
s 0
f 259//235 209//235 271//235
s 1
f 188//4 255//225 196//1
f 253//216 255//225 273//236 272//69
f 256//212 253//216 272//69 274//69
f 257//213 256//212 274//69 275//237
f 255//225 188//4 273//236
f 207//168 257//213 201//169
s 0
f 257//238 275//238 201//238
usemtl Lights
f 112//120 116//120 115//120 111//120
f 110//121 114//121 113//121 109//121
usemtl Bottom
f 193//10 62//10 7//10 187//10
f 194//10 66//10 18//10 190//10
f 184//10 68//10 33//10 181//10
f 183//10 63//10 32//10 176//10
f 181//10 33//10 63//10 183//10
f 190//10 18//10 62//10 193//10
f 179//10 30//10 68//10 184//10
f 188//10 3//10 66//10 194//10
f 1//10 164//10 172//10 67//10
f 20//10 166//10 171//10 61//10
f 61//10 171//10 168//10 5//10
f 67//10 172//10 166//10 20//10
f 164//10 179//10 184//10 172//10
f 166//10 181//10 183//10 171//10
f 171//10 183//10 176//10 168//10
f 172//10 184//10 181//10 166//10
f 201//10 188//10 194//10 206//10
f 203//10 190//10 193//10 205//10
f 206//10 194//10 190//10 203//10
f 205//10 193//10 187//10 209//10
f 63//10 205//10 209//10 32//10
f 68//10 206//10 203//10 33//10
f 33//10 203//10 205//10 63//10
f 30//10 201//10 206//10 68//10
